<?xml version="1.0" encoding="UTF-8"?>
<svg version="1.1" xmlns="http://www.w3.org/2000/svg" width="150" height="133">
<path d="M0 0 C12.57769621 13.49661466 19.12873436 28.31083004 19.0234375 46.6484375 C19.02069824 47.61313965 19.01795898 48.5778418 19.01513672 49.57177734 C18.90099296 57.36635312 18.2695903 64.85032727 14.6484375 71.90625 C13.25664888 74.7710149 13.07303873 77.69772688 12.7109375 80.8359375 C13.7834375 80.7534375 14.8559375 80.6709375 15.9609375 80.5859375 C19.7109375 80.8359375 19.7109375 80.8359375 22.0859375 82.7109375 C25.9635299 87.78163526 25.27094817 93.68328698 24.7109375 99.8359375 C23.47007051 103.08218669 21.89209215 105.24536018 18.7109375 106.8359375 C17.18945424 106.91966409 15.66437972 106.94323777 14.140625 106.93359375 C13.24472656 106.93037109 12.34882813 106.92714844 11.42578125 106.92382812 C10.02005859 106.91125977 10.02005859 106.91125977 8.5859375 106.8984375 C7.64105469 106.89392578 6.69617188 106.88941406 5.72265625 106.88476562 C3.38535363 106.87296107 1.04817689 106.85649509 -1.2890625 106.8359375 C-1.6190625 105.8459375 -1.9490625 104.8559375 -2.2890625 103.8359375 C-3.11792969 104.31933594 -3.94679688 104.80273438 -4.80078125 105.30078125 C-8.66093083 106.99959288 -11.96072603 107.31506495 -16.1015625 107.3984375 C-20.41833836 107.51214769 -24.41208645 107.79759131 -28.61328125 108.84765625 C-33.84989421 110.093933 -38.92707772 110.13037384 -44.2890625 110.0859375 C-45.68898437 110.09753906 -45.68898437 110.09753906 -47.1171875 110.109375 C-52.3051873 110.09488338 -56.87926928 109.56130735 -61.89990234 108.30810547 C-66.73828091 107.35190026 -71.68411962 107.39705194 -76.6015625 107.2734375 C-78.72276658 107.21341547 -80.84387189 107.14976423 -82.96484375 107.08203125 C-84.3557019 107.04613892 -84.3557019 107.04613892 -85.7746582 107.00952148 C-88.2890625 106.8359375 -88.2890625 106.8359375 -90.43432617 106.25805664 C-92.50220872 105.61872507 -92.50220872 105.61872507 -95.2890625 106.8359375 C-98.15497805 106.95807265 -100.98585762 107.02105932 -103.8515625 107.0234375 C-104.63208984 107.03568359 -105.41261719 107.04792969 -106.21679688 107.06054688 C-108.24226285 107.06578967 -110.26728802 106.95828078 -112.2890625 106.8359375 C-115.08525382 104.03974618 -114.54728639 102.27709037 -114.5546875 98.3671875 C-114.55726562 97.07425781 -114.55984375 95.78132813 -114.5625 94.44921875 C-114.55831055 93.77455566 -114.55412109 93.09989258 -114.54980469 92.40478516 C-114.5391032 90.34377593 -114.54970193 88.28363831 -114.5625 86.22265625 C-114.55992188 84.92972656 -114.55734375 83.63679688 -114.5546875 82.3046875 C-114.55243164 81.11294922 -114.55017578 79.92121094 -114.54785156 78.69335938 C-114.2890625 75.8359375 -114.2890625 75.8359375 -112.2890625 73.8359375 C-109.90625 73.640625 -109.90625 73.640625 -107.1640625 73.7109375 C-106.25398438 73.72898437 -105.34390625 73.74703125 -104.40625 73.765625 C-103.70757812 73.78882812 -103.00890625 73.81203125 -102.2890625 73.8359375 C-102.56621094 73.09988281 -102.84335938 72.36382812 -103.12890625 71.60546875 C-103.49113281 70.62964844 -103.85335937 69.65382813 -104.2265625 68.6484375 C-104.58621094 67.68550781 -104.94585937 66.72257812 -105.31640625 65.73046875 C-109.96124999 51.90786147 -108.77236056 33.71579804 -102.8125 20.58203125 C-94.24028051 3.69201887 -82.09365136 -7.4185095 -64.2890625 -14.1640625 C-61.29882909 -15.10087613 -58.38768361 -15.71817713 -55.2890625 -16.1640625 C-54.57105469 -16.29683594 -53.85304687 -16.42960937 -53.11328125 -16.56640625 C-34.43968229 -19.35960004 -13.83137474 -12.75185281 0 0 Z " fill="#C9DBEB" transform="translate(119.2890625,20.1640625)"/>
<path d="M0 0 C5.05783285 0.09292606 8.43140964 0.79570341 12.8125 3.3125 C15.10263653 6.7477048 14.99092973 8.297831 14.8125 12.3125 C17.1225 12.6425 19.4325 12.9725 21.8125 13.3125 C22.1425 12.3225 22.4725 11.3325 22.8125 10.3125 C30.8125 10.04583333 30.8125 10.04583333 34.8125 12.3125 C36.80360401 12.69540462 38.80350513 13.03854615 40.8125 13.3125 C40.8125 12.3225 40.8125 11.3325 40.8125 10.3125 C47.852656 10.3125 54.27679799 10.34172636 60.8125 13.3125 C60.80089844 12.60222656 60.78929688 11.89195313 60.77734375 11.16015625 C60.76832031 10.24105469 60.75929688 9.32195312 60.75 8.375 C60.73839844 7.45847656 60.72679688 6.54195313 60.71484375 5.59765625 C60.8125 3.3125 60.8125 3.3125 61.8125 2.3125 C63.81208364 2.27169217 65.81295254 2.26995644 67.8125 2.3125 C67.8125 5.9425 67.8125 9.5725 67.8125 13.3125 C69.1325 13.3125 70.4525 13.3125 71.8125 13.3125 C72.1425 12.3225 72.4725 11.3325 72.8125 10.3125 C74.7925 10.3125 76.7725 10.3125 78.8125 10.3125 C78.4825 11.3025 78.1525 12.2925 77.8125 13.3125 C79.1325 13.3125 80.4525 13.3125 81.8125 13.3125 C81.8125 10.3425 81.8125 7.3725 81.8125 4.3125 C86.20352582 2.11698709 92.02002742 2.98057906 96.8125 3.3125 C101.07719804 4.83044337 102.31185788 5.56153681 104.8125 9.3125 C104.8125 10.6325 104.8125 11.9525 104.8125 13.3125 C106.1325 13.3125 107.4525 13.3125 108.8125 13.3125 C108.80089844 12.69761719 108.78929688 12.08273438 108.77734375 11.44921875 C108.76832031 10.64097656 108.75929688 9.83273438 108.75 9 C108.73839844 8.19949219 108.72679688 7.39898437 108.71484375 6.57421875 C108.8125 4.3125 108.8125 4.3125 109.8125 1.3125 C112.1225 1.3125 114.4325 1.3125 116.8125 1.3125 C116.8125 1.9725 116.8125 2.6325 116.8125 3.3125 C117.8025 2.9825 118.7925 2.6525 119.8125 2.3125 C119.8125 3.9625 119.8125 5.6125 119.8125 7.3125 C120.885 7.23 121.9575 7.1475 123.0625 7.0625 C126.8125 7.3125 126.8125 7.3125 129.1875 9.1875 C133.0650924 14.25819776 132.37251067 20.15984948 131.8125 26.3125 C130.57163301 29.55874919 128.99365465 31.72192268 125.8125 33.3125 C124.29101674 33.39622659 122.76594222 33.41980027 121.2421875 33.41015625 C120.34628906 33.40693359 119.45039063 33.40371094 118.52734375 33.40039062 C117.12162109 33.38782227 117.12162109 33.38782227 115.6875 33.375 C114.74261719 33.37048828 113.79773438 33.36597656 112.82421875 33.36132812 C110.48691613 33.34952357 108.14973939 33.33305759 105.8125 33.3125 C105.4825 32.3225 105.1525 31.3325 104.8125 30.3125 C103.98363281 30.79589844 103.15476562 31.27929688 102.30078125 31.77734375 C98.44063167 33.47615538 95.14083647 33.79162745 91 33.875 C86.68322414 33.98871019 82.68947605 34.27415381 78.48828125 35.32421875 C73.25166829 36.5704955 68.17448478 36.60693634 62.8125 36.5625 C61.41257813 36.57410156 61.41257813 36.57410156 59.984375 36.5859375 C54.7963752 36.57144588 50.22229322 36.03786985 45.20166016 34.78466797 C40.36328159 33.82846276 35.41744288 33.87361444 30.5 33.75 C28.37879592 33.68997797 26.25769061 33.62632673 24.13671875 33.55859375 C23.20947998 33.53466553 22.28224121 33.5107373 21.3269043 33.48608398 C18.8125 33.3125 18.8125 33.3125 16.66723633 32.73461914 C14.59935378 32.09528757 14.59935378 32.09528757 11.8125 33.3125 C8.94658445 33.43463515 6.11570488 33.49762182 3.25 33.5 C2.46947266 33.51224609 1.68894531 33.52449219 0.88476562 33.53710938 C-1.14070035 33.54235217 -3.16572552 33.43484328 -5.1875 33.3125 C-7.98369132 30.51630868 -7.44572389 28.75365287 -7.453125 24.84375 C-7.45570313 23.55082031 -7.45828125 22.25789063 -7.4609375 20.92578125 C-7.45674805 20.25111816 -7.45255859 19.57645508 -7.44824219 18.88134766 C-7.4375407 16.82033843 -7.44813943 14.76020081 -7.4609375 12.69921875 C-7.45835937 11.40628906 -7.45578125 10.11335938 -7.453125 8.78125 C-7.45086914 7.58951172 -7.44861328 6.39777344 -7.44628906 5.16992188 C-6.98294821 0.05393944 -4.53888917 0.01878161 0 0 Z " fill="#3F4DDD" transform="translate(12.1875,93.6875)"/>
<path d="M0 0 C15.3233694 -0.88404054 29.12971666 5.98855952 40.65625 15.71875 C51.99116327 26.75139892 59.72227628 41.33962121 60.30078125 57.26953125 C60.31990476 59.11709266 60.32342796 60.96487194 60.3125 62.8125 C60.30831055 63.77937744 60.30412109 64.74625488 60.29980469 65.74243164 C60.14017581 75.8491474 58.62177416 84.47041162 53 93 C52.34 93 51.68 93 51 93 C51 92.34 51 91.68 51 91 C48.69 91 46.38 91 44 91 C43.505 96.94 43.505 96.94 43 103 C41.68 103 40.36 103 39 103 C38.79375 101.88625 38.5875 100.7725 38.375 99.625 C37.41543011 95.8282094 37.41543011 95.8282094 34.40625 94.78125 C30.59044646 93.9060657 27.01153575 93.7770834 23.125 93.875 C22.43664062 93.88402344 21.74828125 93.89304687 21.0390625 93.90234375 C19.35922162 93.92567487 17.67956254 93.96153674 16 94 C16.33 93.34 16.66 92.68 17 92 C33.8929385 91.6309795 33.8929385 91.6309795 41 94 C41.495 92.02 41.495 92.02 42 90 C41.42894531 90.00222061 40.85789063 90.00444122 40.26953125 90.00672913 C34.2993228 90.02893796 28.32912619 90.04397144 22.35888672 90.05493164 C20.13394697 90.05994495 17.90901049 90.06675728 15.68408203 90.07543945 C12.47687979 90.08763687 9.2697213 90.09325847 6.0625 90.09765625 C4.58233398 90.10539818 4.58233398 90.10539818 3.07226562 90.11329651 C-2.38249806 90.11373464 -7.60353183 89.80556782 -13 89 C-15.88918092 82.82984825 -15.32940043 76.62668941 -15.3125 69.9375 C-15.32861328 68.65810547 -15.34472656 67.37871094 -15.36132812 66.06054688 C-15.36197266 64.83271484 -15.36261719 63.60488281 -15.36328125 62.33984375 C-15.36626221 61.21956787 -15.36924316 60.09929199 -15.37231445 58.94506836 C-14.95598626 55.65184409 -14.41892899 54.25838657 -12 52 C-9.94702148 51.49829102 -9.94702148 51.49829102 -7.62109375 51.50390625 C-6.36329102 51.50293945 -6.36329102 51.50293945 -5.08007812 51.50195312 C-4.20802734 51.52193359 -3.33597656 51.54191406 -2.4375 51.5625 C-1.56158203 51.55541016 -0.68566406 51.54832031 0.21679688 51.54101562 C5.0449328 51.58933415 5.0449328 51.58933415 7 52 C9.43358682 55.65038023 9.24507795 57.40505278 9.23046875 61.75 C9.22978142 62.73178223 9.22978142 62.73178223 9.2290802 63.73339844 C9.22606337 65.11525285 9.21819402 66.49710403 9.20581055 67.87890625 C9.18756638 69.99231028 9.18530089 72.10527546 9.18554688 74.21875 C9.14772503 84.55682492 9.14772503 84.55682492 8 88 C11.63 88 15.26 88 19 88 C18.67 86.68 18.34 85.36 18 84 C17.77119597 79.33624331 17.81484377 74.66879553 17.8125 70 C17.80025391 68.71609375 17.78800781 67.4321875 17.77539062 66.109375 C17.77345703 64.87703125 17.77152344 63.6446875 17.76953125 62.375 C17.76542236 61.24835938 17.76131348 60.12171875 17.75708008 58.9609375 C17.99328554 56.08184219 18.50220676 54.43386763 20 52 C21.32 52 22.64 52 24 52 C26.15557559 55.50274359 26.24531287 58.30479991 26.23046875 62.375 C26.22853516 63.60734375 26.22660156 64.8396875 26.22460938 66.109375 C26.20624023 68.03523438 26.20624023 68.03523438 26.1875 70 C26.18685547 71.28390625 26.18621094 72.5678125 26.18554688 73.890625 C26.14060834 83.43756663 26.14060834 83.43756663 25 88 C28.63 88 32.26 88 36 88 C35.67 87.01 35.34 86.02 35 85 C34.77335165 80.88804956 34.77174745 76.77595528 34.75976562 72.65820312 C34.75006678 70.63890274 34.71903244 68.62062388 34.6875 66.6015625 C34.67976563 64.6834375 34.67976563 64.6834375 34.671875 62.7265625 C34.6625293 61.55689941 34.65318359 60.38723633 34.64355469 59.18212891 C35.03545022 55.6835218 36.04085631 53.87684951 38 51 C38.55672814 48.80480783 38.55672814 48.80480783 38.6875 46.6875 C38.790625 45.470625 38.89375 44.25375 39 43 C40.32 43 41.64 43 43 43 C43.33 38.71 43.66 34.42 44 30 C41.525 29.01 41.525 29.01 39 28 C37.04867832 26.69626607 35.13657782 25.33328029 33.25 23.9375 C28.40587609 20.39230172 23.49672245 16.95531731 18.5234375 13.59375 C17.9577002 13.21118546 17.39196289 12.82862091 16.80908203 12.4344635 C14.50368551 10.8771089 12.19723608 9.32138525 9.88684082 7.77145386 C8.24821287 6.67203029 6.61232678 5.56852348 4.9765625 4.46484375 C4.01830566 3.821521 3.06004883 3.17819824 2.07275391 2.51538086 C1.38874512 2.01530518 0.70473633 1.51522949 0 1 C0 0.67 0 0.34 0 0 Z " fill="#6084E9" transform="translate(78,4)"/>
<path d="M0 0 C9.9 0 19.8 0 30 0 C30.495 0.99 30.495 0.99 31 2 C22.75 2 14.5 2 6 2 C6 3.98 6 5.96 6 8 C32.73 8 59.46 8 87 8 C87 6.02 87 4.04 87 2 C79.08 2 71.16 2 63 2 C63.33 1.34 63.66 0.68 64 0 C73.24 0 82.48 0 92 0 C92 0.66 92 1.32 92 2 C90.68 2 89.36 2 88 2 C88.061875 3.216875 88.12375 4.43375 88.1875 5.6875 C88.33549017 8.59797326 88.18673886 9.72961769 86.5 12.171875 C84.57213112 15.80671111 84.6580127 18.3870626 84.70703125 22.48828125 C84.71127609 23.19147995 84.71552094 23.89467865 84.71989441 24.6191864 C84.7365994 26.85069131 84.77423386 29.08127113 84.8125 31.3125 C84.82755752 32.8313671 84.84124406 34.35024846 84.85351562 35.86914062 C84.88647527 39.57972434 84.93819984 43.28977178 85 47 C81.37 47 77.74 47 74 47 C74.00785522 45.5773584 74.00785522 45.5773584 74.01586914 44.12597656 C74.03293345 40.59992869 74.0454611 37.07392485 74.05493164 33.54785156 C74.05995365 32.02310493 74.0667725 30.49836309 74.07543945 28.97363281 C74.08759849 26.77928481 74.09324968 24.5850006 74.09765625 22.390625 C74.10551147 20.4111084 74.10551147 20.4111084 74.11352539 18.39160156 C74.02311329 15.69051582 73.81881355 13.5499384 73 11 C71.68 11 70.36 11 69 11 C67.7812625 14.79537631 67.88661872 18.42791621 67.90234375 22.390625 C67.9037587 23.09523865 67.90517365 23.79985229 67.90663147 24.52581787 C67.91221067 26.76725584 67.92475927 29.00859243 67.9375 31.25 C67.94251769 32.77343605 67.94708013 34.29687368 67.95117188 35.8203125 C67.96217326 39.54690772 67.97942354 43.27344396 68 47 C64.37 47 60.74 47 57 47 C57.00523682 46.01080566 57.01047363 45.02161133 57.01586914 44.00244141 C57.03394523 40.33855084 57.04544158 36.67466423 57.05493164 33.01074219 C57.05996588 31.42382139 57.06679369 29.83690523 57.07543945 28.25 C57.08754482 25.97134251 57.09323733 23.69274624 57.09765625 21.4140625 C57.10281754 20.70255035 57.10797882 19.99103821 57.11329651 19.25796509 C57.17314758 15.50406444 57.17314758 15.50406444 56 12 C52.87517438 11.91312504 49.75065754 11.85965432 46.625 11.8125 C45.73554687 11.78736328 44.84609375 11.76222656 43.9296875 11.73632812 C42.65351562 11.72182617 42.65351562 11.72182617 41.3515625 11.70703125 C40.56604004 11.6913208 39.78051758 11.67561035 38.97119141 11.65942383 C38.32069824 11.77181396 37.67020508 11.8842041 37 12 C34.63834655 15.54248018 34.7542172 17.04733917 34.76953125 21.2421875 C34.77146484 22.47324219 34.77339844 23.70429687 34.77539062 24.97265625 C34.78763672 26.26042969 34.79988281 27.54820313 34.8125 28.875 C34.81314453 30.15503906 34.81378906 31.43507813 34.81445312 32.75390625 C34.83938745 38.05660582 34.95551285 42.77756427 36 48 C54.15 48.33 72.3 48.66 91 49 C90.67 50.32 90.34 51.64 90 53 C84.25 53.125 84.25 53.125 82 52 C79.28239892 51.92818179 76.59140612 51.90700494 73.875 51.9375 C73.12089844 51.94201172 72.36679688 51.94652344 71.58984375 51.95117188 C69.72652873 51.96296501 67.86325445 51.98090058 66 52 C65.505 56.95 65.505 56.95 65 62 C63.68 62 62.36 62 61 62 C61 61.34 61 60.68 61 60 C59.35 60 57.7 60 56 60 C55.505 60.99 55.505 60.99 55 62 C53.68 62 52.36 62 51 62 C51 58.37 51 54.74 51 51 C48.03 51.495 48.03 51.495 45 52 C44.505 56.95 44.505 56.95 44 62 C43.319375 61.855625 42.63875 61.71125 41.9375 61.5625 C35.42787404 60.10075102 35.42787404 60.10075102 29 61 C29 60.34 29 59.68 29 59 C27.35 59 25.7 59 24 59 C24 59.99 24 60.98 24 62 C18.47120419 62.2513089 18.47120419 62.2513089 16.125 61 C12.78704498 59.42919764 9.65998861 59.87800038 6 60 C5.67 60.66 5.34 61.32 5 62 C2.36 62 -0.28 62 -3 62 C-2.979375 60.88625 -2.95875 59.7725 -2.9375 58.625 C-2.73619282 55.16784079 -2.73619282 55.16784079 -4 53 C-2.68 53 -1.36 53 0 53 C0 51.02 0 49.04 0 47 C2.31 47 4.62 47 7 47 C7.04950925 42.37355096 7.08577116 37.74725682 7.10986328 33.12060547 C7.11990887 31.54733595 7.13354781 29.97408504 7.15087891 28.40087891 C7.17519096 26.13699748 7.18649747 23.87336334 7.1953125 21.609375 C7.20563507 20.90818542 7.21595764 20.20699585 7.22659302 19.48455811 C7.22744344 15.76686065 6.92600573 13.19370871 5 10 C4.75363388 7.29982731 4.90934334 4.71969994 5 2 C3.35 2 1.7 2 0 2 C0 1.34 0 0.68 0 0 Z " fill="#9FB6C5" transform="translate(29,45)"/>
<path d="M0 0 C-3.39609707 3.71855912 -7.22054187 6.31937057 -11.3984375 9.0625 C-12.11101715 9.5356665 -12.8235968 10.00883301 -13.55776978 10.49633789 C-15.82731388 12.00193821 -18.10105064 13.50106348 -20.375 15 C-21.89611728 16.00738389 -23.41695356 17.0151922 -24.9375 18.0234375 C-27.74094235 19.88154504 -30.54600123 21.73715498 -33.35302734 23.58984375 C-33.96691315 23.99861755 -34.58079895 24.40739136 -35.21328735 24.82855225 C-36.39091154 25.6006547 -37.58036789 26.35504649 -38.78158569 27.08990479 C-42.39627309 29.27237681 -42.39627309 29.27237681 -43.8046875 33.234375 C-43.82789062 34.39453125 -43.85109375 35.5546875 -43.875 36.75 C-43.91367187 37.92046875 -43.95234375 39.0909375 -43.9921875 40.296875 C-43.99476562 41.18890625 -43.99734375 42.0809375 -44 43 C-42.35 43 -40.7 43 -39 43 C-38.86722656 43.69867188 -38.73445313 44.39734375 -38.59765625 45.1171875 C-38.42105469 46.02726562 -38.24445312 46.93734375 -38.0625 47.875 C-37.88847656 48.77992187 -37.71445312 49.68484375 -37.53515625 50.6171875 C-37.10036299 52.99956317 -37.10036299 52.99956317 -36 55 C-35.90211733 57.30042747 -35.86922357 59.60374193 -35.8671875 61.90625 C-35.86575241 62.92700623 -35.86575241 62.92700623 -35.86428833 63.96838379 C-35.86360769 65.40747164 -35.86545393 66.84656257 -35.86962891 68.28564453 C-35.87497885 70.49128093 -35.86968009 72.6967137 -35.86328125 74.90234375 C-35.86394205 76.29947962 -35.86522326 77.69661536 -35.8671875 79.09375 C-35.86831543 80.36927734 -35.86944336 81.64480469 -35.87060547 82.95898438 C-36 86 -36 86 -37 88 C-39.31 88 -41.62 88 -44 88 C-44 89.98 -44 91.96 -44 94 C-52.72196388 92.67849032 -52.72196388 92.67849032 -56 90 C-62.99352443 76.72700469 -63.46209433 56.88419654 -59.1015625 42.72265625 C-51.56487043 24.09473295 -39.57488865 11.12951109 -21.03515625 3.15234375 C-13.88393594 0.43727298 -7.62216975 -0.24197364 0 0 Z " fill="#6084E9" transform="translate(73,4)"/>
<path d="M0 0 C1.25780273 -0.0009668 1.25780273 -0.0009668 2.54101562 -0.00195312 C3.41306641 0.01802734 4.28511719 0.03800781 5.18359375 0.05859375 C6.05951172 0.05150391 6.93542969 0.04441406 7.83789062 0.03710938 C12.66602655 0.0854279 12.66602655 0.0854279 14.62109375 0.49609375 C17.05468057 4.14647398 16.8661717 5.90114653 16.8515625 10.24609375 C16.85087517 11.22787598 16.85087517 11.22787598 16.85017395 12.22949219 C16.84715712 13.6113466 16.83928777 14.99319778 16.8269043 16.375 C16.80866013 18.48840403 16.80639464 20.60136921 16.80664062 22.71484375 C16.76881878 33.05291867 16.76881878 33.05291867 15.62109375 36.49609375 C19.25109375 36.49609375 22.88109375 36.49609375 26.62109375 36.49609375 C26.12609375 34.51609375 26.12609375 34.51609375 25.62109375 32.49609375 C25.39228972 27.83233706 25.43593752 23.16488928 25.43359375 18.49609375 C25.42134766 17.2121875 25.40910156 15.92828125 25.39648438 14.60546875 C25.39455078 13.373125 25.39261719 12.14078125 25.390625 10.87109375 C25.38651611 9.74445313 25.38240723 8.6178125 25.37817383 7.45703125 C25.61437929 4.57793594 26.12330051 2.92996138 27.62109375 0.49609375 C28.94109375 0.49609375 30.26109375 0.49609375 31.62109375 0.49609375 C33.77666934 3.99883734 33.86640662 6.80089366 33.8515625 10.87109375 C33.84962891 12.1034375 33.84769531 13.33578125 33.84570312 14.60546875 C33.82733398 16.53132813 33.82733398 16.53132813 33.80859375 18.49609375 C33.80794922 19.78 33.80730469 21.06390625 33.80664062 22.38671875 C33.75773136 32.77721956 33.75773136 32.77721956 32.62109375 36.49609375 C33.40613281 36.41230469 34.19117188 36.32851562 35 36.2421875 C36.57587891 36.08943359 36.57587891 36.08943359 38.18359375 35.93359375 C39.73240234 35.77697266 39.73240234 35.77697266 41.3125 35.6171875 C44.62109375 35.49609375 44.62109375 35.49609375 51.62109375 36.49609375 C51.29109375 41.44609375 50.96109375 46.39609375 50.62109375 51.49609375 C49.30109375 51.49609375 47.98109375 51.49609375 46.62109375 51.49609375 C46.41484375 50.38234375 46.20859375 49.26859375 45.99609375 48.12109375 C45.03652386 44.32430315 45.03652386 44.32430315 42.02734375 43.27734375 C38.21154021 42.40215945 34.6326295 42.27317715 30.74609375 42.37109375 C30.05773437 42.38011719 29.369375 42.38914063 28.66015625 42.3984375 C26.98031537 42.42176862 25.30065629 42.45763049 23.62109375 42.49609375 C23.95109375 41.83609375 24.28109375 41.17609375 24.62109375 40.49609375 C41.51403225 40.12707325 41.51403225 40.12707325 48.62109375 42.49609375 C48.95109375 41.17609375 49.28109375 39.85609375 49.62109375 38.49609375 C49.05003906 38.49831436 48.47898438 38.50053497 47.890625 38.50282288 C41.92041655 38.52503171 35.95021994 38.54006519 29.97998047 38.55102539 C27.75504072 38.5560387 25.53010424 38.56285103 23.30517578 38.5715332 C20.09797354 38.58373062 16.89081505 38.58935222 13.68359375 38.59375 C12.20342773 38.60149193 12.20342773 38.60149193 10.69335938 38.60939026 C5.23859569 38.60982839 0.01756192 38.30166157 -5.37890625 37.49609375 C-8.26808717 31.325942 -7.70830668 25.12278316 -7.69140625 18.43359375 C-7.70751953 17.15419922 -7.72363281 15.87480469 -7.74023438 14.55664062 C-7.74087891 13.32880859 -7.74152344 12.10097656 -7.7421875 10.8359375 C-7.74516846 9.71566162 -7.74814941 8.59538574 -7.7512207 7.44116211 C-7.10140357 2.30100209 -5.24066316 -0.01265196 0 0 Z " fill="#93A8B9" transform="translate(70.37890625,55.50390625)"/>
<path d="M0 0 C5.05783285 0.09292606 8.43140964 0.79570341 12.8125 3.3125 C15.10263653 6.7477048 14.99092973 8.297831 14.8125 12.3125 C17.1225 12.6425 19.4325 12.9725 21.8125 13.3125 C22.1425 12.3225 22.4725 11.3325 22.8125 10.3125 C30.8125 10.04583333 30.8125 10.04583333 34.8125 12.3125 C36.7925 12.6425 38.7725 12.9725 40.8125 13.3125 C40.8125 18.2625 40.8125 23.2125 40.8125 28.3125 C42.7925 28.3125 44.7725 28.3125 46.8125 28.3125 C46.4825 28.9725 46.1525 29.6325 45.8125 30.3125 C43.5025 30.3125 41.1925 30.3125 38.8125 30.3125 C38.8125 29.6525 38.8125 28.9925 38.8125 28.3125 C37.8225 29.3025 36.8325 30.2925 35.8125 31.3125 C37.4625 31.6425 39.1125 31.9725 40.8125 32.3125 C40.8125 32.6425 40.8125 32.9725 40.8125 33.3125 C37.22918375 33.34157084 33.64589792 33.35932263 30.0625 33.375 C29.04671875 33.38337891 28.0309375 33.39175781 26.984375 33.40039062 C26.0046875 33.40361328 25.025 33.40683594 24.015625 33.41015625 C23.11489258 33.41539307 22.21416016 33.42062988 21.28613281 33.42602539 C18.8125 33.3125 18.8125 33.3125 16.67480469 32.74389648 C14.6013029 32.09280989 14.6013029 32.09280989 11.8125 33.3125 C8.94658445 33.43463515 6.11570488 33.49762182 3.25 33.5 C2.46947266 33.51224609 1.68894531 33.52449219 0.88476562 33.53710938 C-1.14070035 33.54235217 -3.16572552 33.43484328 -5.1875 33.3125 C-7.98369132 30.51630868 -7.44572389 28.75365287 -7.453125 24.84375 C-7.45570313 23.55082031 -7.45828125 22.25789063 -7.4609375 20.92578125 C-7.45674805 20.25111816 -7.45255859 19.57645508 -7.44824219 18.88134766 C-7.4375407 16.82033843 -7.44813943 14.76020081 -7.4609375 12.69921875 C-7.45835937 11.40628906 -7.45578125 10.11335938 -7.453125 8.78125 C-7.45086914 7.58951172 -7.44861328 6.39777344 -7.44628906 5.16992188 C-6.98294821 0.05393944 -4.53888917 0.01878161 0 0 Z " fill="#3C4BD4" transform="translate(12.1875,93.6875)"/>
<path d="M0 0 C5.72771382 2.64933579 9.22969479 6.45636929 11.7109375 12.27734375 C12.66442403 18.74097873 12.24374847 24.21394674 8.3125 29.55078125 C3.93707219 34.26770586 -0.2439204 36.5568453 -6.7265625 36.96484375 C-12.77878386 36.64542096 -17.03449161 34.5760492 -21.2890625 30.27734375 C-24.95754537 24.89359727 -26.10213032 19.68025279 -25.2890625 13.27734375 C-23.18266429 7.11584737 -20.09283292 3.48289131 -14.4296875 0.19921875 C-9.89328194 -1.75441576 -4.65970345 -1.47106679 0 0 Z " fill="#91ABBC" transform="translate(82.2890625,13.72265625)"/>
<path d="M0 0 C2.31 0 4.62 0 7 0 C7 0.66 7 1.32 7 2 C7.99 1.67 8.98 1.34 10 1 C10 2.65 10 4.3 10 6 C11.0725 5.9175 12.145 5.835 13.25 5.75 C17 6 17 6 19.375 7.875 C23.2525924 12.94569776 22.56001067 18.84734948 22 25 C20.75913301 28.24624919 19.18115465 30.40942268 16 32 C14.47851674 32.08372659 12.95344222 32.10730027 11.4296875 32.09765625 C10.53378906 32.09443359 9.63789063 32.09121094 8.71484375 32.08789062 C7.30912109 32.07532227 7.30912109 32.07532227 5.875 32.0625 C4.45767578 32.05573242 4.45767578 32.05573242 3.01171875 32.04882812 C0.67441613 32.03702357 -1.66276061 32.02055759 -4 32 C-4.33 31.01 -4.66 30.02 -5 29 C-5.83789062 29.49113281 -6.67578125 29.98226562 -7.5390625 30.48828125 C-11.46250831 32.20202112 -14.12063208 32.30790664 -18.375 32.1875 C-19.62023437 32.16042969 -20.86546875 32.13335937 -22.1484375 32.10546875 C-23.08945313 32.07066406 -24.03046875 32.03585938 -25 32 C-21.85488046 29.40811835 -18.7079127 27.89811591 -14.9375 26.375 C-13.89464844 25.94960937 -12.85179688 25.52421875 -11.77734375 25.0859375 C-9.87046352 24.34035001 -7.94239121 23.64746374 -6 23 C-5.34 19.37 -4.68 15.74 -4 12 C-3.01 12 -2.02 12 -1 12 C-1.01160156 11.38511719 -1.02320312 10.77023438 -1.03515625 10.13671875 C-1.04417969 9.32847656 -1.05320312 8.52023438 -1.0625 7.6875 C-1.07410156 6.88699219 -1.08570312 6.08648437 -1.09765625 5.26171875 C-1 3 -1 3 0 0 Z " fill="#3C4AD5" transform="translate(122,95)"/>
<path d="M0 0 C10 0 10 0 15 1 C17.49118953 4.7367843 17.2065226 6.74451819 17.125 11.1875 C17.10695313 12.45980469 17.08890625 13.73210937 17.0703125 15.04296875 C17.04710938 16.01878906 17.02390625 16.99460937 17 18 C15.02 18 13.04 18 11 18 C11 13.71 11 9.42 11 5 C9.35 5 7.7 5 6 5 C6 5.99 6 6.98 6 8 C6.99 8 7.98 8 9 8 C9.33 11.96 9.66 15.92 10 20 C15.36521873 20.24987802 15.36521873 20.24987802 17.9375 19.5 C20.96445467 18.76619281 23.89700268 18.94458933 27 19 C28.32 19 29.64 19 31 19 C31 19.66 31 20.32 31 21 C36.28 20.67 41.56 20.34 47 20 C40.32464434 26.67535566 30.95858542 26.32030138 22 26.375 C14.30458007 26.33450456 7.22103927 25.89905444 0 23 C-0.91652344 22.63648437 -1.83304688 22.27296875 -2.77734375 21.8984375 C-3.51082031 21.60195312 -4.24429688 21.30546875 -5 21 C-4.505 19.515 -4.505 19.515 -4 18 C-3.34 18 -2.68 18 -2 18 C-2 18.66 -2 19.32 -2 20 C1.465 19.505 1.465 19.505 5 19 C3.35 18.67 1.7 18.34 0 18 C0 12.06 0 6.12 0 0 Z " fill="#3E4DDA" transform="translate(53,104)"/>
<path d="M0 0 C0.99773438 0.02320312 1.99546875 0.04640625 3.0234375 0.0703125 C4.52777344 0.09738281 4.52777344 0.09738281 6.0625 0.125 C6.83335938 0.14820312 7.60421875 0.17140625 8.3984375 0.1953125 C8.7284375 1.1853125 9.0584375 2.1753125 9.3984375 3.1953125 C6.4284375 3.1953125 3.4584375 3.1953125 0.3984375 3.1953125 C0.3984375 11.4453125 0.3984375 19.6953125 0.3984375 28.1953125 C2.4609375 28.0921875 4.5234375 27.9890625 6.6484375 27.8828125 C7.80859375 27.82480469 8.96875 27.76679687 10.1640625 27.70703125 C13.54374897 27.1723224 15.04777325 26.64892555 17.3984375 24.1953125 C18.03360611 19.39319582 18.03360611 19.39319582 15.8984375 15.2578125 C15.1559375 14.731875 15.1559375 14.731875 14.3984375 14.1953125 C16.98314194 14.56455599 18.44422892 15.22802066 20.5859375 16.7578125 C23.1549883 20.21274289 23.11408165 22.9299747 23.3984375 27.1953125 C24.07390625 27.18371094 24.749375 27.17210938 25.4453125 27.16015625 C26.33734375 27.15113281 27.229375 27.14210938 28.1484375 27.1328125 C29.47101562 27.11541016 29.47101562 27.11541016 30.8203125 27.09765625 C34.09769312 27.22179946 36.50602938 27.37429703 38.9609375 29.6328125 C39.4353125 30.1484375 39.9096875 30.6640625 40.3984375 31.1953125 C41.3884375 31.8553125 42.3784375 32.5153125 43.3984375 33.1953125 C39.81512125 33.22438334 36.23183542 33.24213513 32.6484375 33.2578125 C31.63265625 33.26619141 30.616875 33.27457031 29.5703125 33.28320312 C28.590625 33.28642578 27.6109375 33.28964844 26.6015625 33.29296875 C25.70083008 33.29820557 24.80009766 33.30344238 23.87207031 33.30883789 C21.3984375 33.1953125 21.3984375 33.1953125 19.26074219 32.62670898 C17.1872404 31.97562239 17.1872404 31.97562239 14.3984375 33.1953125 C11.53252195 33.31744765 8.70164238 33.38043432 5.8359375 33.3828125 C5.05541016 33.39505859 4.27488281 33.40730469 3.47070312 33.41992188 C1.44523715 33.42516467 -0.57978802 33.31765578 -2.6015625 33.1953125 C-5.39775382 30.39912118 -4.85978639 28.63646537 -4.8671875 24.7265625 C-4.86976563 23.43363281 -4.87234375 22.14070313 -4.875 20.80859375 C-4.87081055 20.13393066 -4.86662109 19.45926758 -4.86230469 18.76416016 C-4.8516032 16.70315093 -4.86220193 14.64301331 -4.875 12.58203125 C-4.87242187 11.28910156 -4.86984375 9.99617188 -4.8671875 8.6640625 C-4.86493164 7.47232422 -4.86267578 6.28058594 -4.86035156 5.05273438 C-4.51995115 1.29420002 -3.81448787 0.28637296 0 0 Z " fill="#000001" transform="translate(9.6015625,93.8046875)"/>
<path d="M0 0 C1.25780273 -0.0009668 1.25780273 -0.0009668 2.54101562 -0.00195312 C3.41306641 0.01802734 4.28511719 0.03800781 5.18359375 0.05859375 C6.05951172 0.05150391 6.93542969 0.04441406 7.83789062 0.03710938 C12.66602655 0.0854279 12.66602655 0.0854279 14.62109375 0.49609375 C17.05468057 4.14647398 16.8661717 5.90114653 16.8515625 10.24609375 C16.85087517 11.22787598 16.85087517 11.22787598 16.85017395 12.22949219 C16.84715712 13.6113466 16.83928777 14.99319778 16.8269043 16.375 C16.80866013 18.48840403 16.80639464 20.60136921 16.80664062 22.71484375 C16.76881878 33.05291867 16.76881878 33.05291867 15.62109375 36.49609375 C14.96109375 36.49609375 14.30109375 36.49609375 13.62109375 36.49609375 C13.12609375 24.61609375 13.12609375 24.61609375 12.62109375 12.49609375 C7.67109375 12.49609375 2.72109375 12.49609375 -2.37890625 12.49609375 C-2.70890625 20.41609375 -3.03890625 28.33609375 -3.37890625 36.49609375 C-4.36890625 36.16609375 -5.35890625 35.83609375 -6.37890625 35.49609375 C-8.18614402 30.07438044 -7.60626945 24.23194207 -7.62890625 18.55859375 C-7.64953125 17.27017578 -7.67015625 15.98175781 -7.69140625 14.65429688 C-7.6965625 13.41744141 -7.70171875 12.18058594 -7.70703125 10.90625 C-7.71637695 9.77324463 -7.72572266 8.64023926 -7.73535156 7.47290039 C-7.11730079 2.3113298 -5.2589421 -0.01269609 0 0 Z " fill="#54636E" transform="translate(70.37890625,55.50390625)"/>
<path d="M0 0 C2.31 0 4.62 0 7 0 C7.061875 0.5775 7.12375 1.155 7.1875 1.75 C8.32027301 4.88690987 10.34197595 6.09167504 13 8 C12.34 9.32 11.68 10.64 11 12 C10.484375 11.855625 9.96875 11.71125 9.4375 11.5625 C6.31490429 10.84190099 3.17449308 10.42733561 0 10 C-0.33 10.99 -0.66 11.98 -1 13 C0.216875 13.268125 1.43375 13.53625 2.6875 13.8125 C7.25547567 14.95247269 10.64387672 16.64387672 14 20 C14.4375 22.8125 14.4375 22.8125 14 26 C11.625 28.875 11.625 28.875 9 31 C8.34 31 7.68 31 7 31 C7 31.66 7 32.32 7 33 C4.69 33 2.38 33 0 33 C0 32.01 0 31.02 0 30 C-0.5775 29.896875 -1.155 29.79375 -1.75 29.6875 C-4.32049158 28.90207202 -5.93657284 27.69495803 -8 26 C-7.505 24.515 -7.505 24.515 -7 23 C-4.6875 22.375 -4.6875 22.375 -2 22 C-1.01 22.66 -0.02 23.32 1 24 C2.9896995 24.39013716 4.99019869 24.73202649 7 25 C6.67 24.01 6.34 23.02 6 22 C3.53662374 20.83894632 1.0248922 20.02879023 -1.5546875 19.16015625 C-4.36001241 17.82919539 -5.44111179 16.65868637 -7 14 C-7.4375 11 -7.4375 11 -7 8 C-5.1875 5.625 -5.1875 5.625 -3 4 C-2.01 4 -1.02 4 0 4 C0 2.68 0 1.36 0 0 Z " fill="#0953AC" transform="translate(72,15)"/>
<path d="M0 0 C0.33 0 0.66 0 1 0 C1 1.65 1 3.3 1 5 C2.0725 4.9175 3.145 4.835 4.25 4.75 C8 5 8 5 10.375 6.875 C14.2525924 11.94569776 13.56001067 17.84734948 13 24 C11.75913301 27.24624919 10.18115465 29.40942268 7 31 C5.47851674 31.08372659 3.95344222 31.10730027 2.4296875 31.09765625 C1.53378906 31.09443359 0.63789063 31.09121094 -0.28515625 31.08789062 C-1.22230469 31.07951172 -2.15945312 31.07113281 -3.125 31.0625 C-4.06988281 31.05798828 -5.01476562 31.05347656 -5.98828125 31.04882812 C-8.32558387 31.03702357 -10.66276061 31.02055759 -13 31 C-13.33 30.01 -13.66 29.02 -14 28 C-14.83789062 28.49113281 -15.67578125 28.98226562 -16.5390625 29.48828125 C-20.46250831 31.20202112 -23.12063208 31.30790664 -27.375 31.1875 C-28.62023437 31.16042969 -29.86546875 31.13335937 -31.1484375 31.10546875 C-32.08945313 31.07066406 -33.03046875 31.03585938 -34 31 C-30.85488046 28.40811835 -27.7079127 26.89811591 -23.9375 25.375 C-22.89464844 24.94960937 -21.85179688 24.52421875 -20.77734375 24.0859375 C-18.87046352 23.34035001 -16.94239121 22.64746374 -15 22 C-14.566875 20.88625 -14.566875 20.88625 -14.125 19.75 C-12.73024988 16.34061083 -10.68504743 14.47307 -8 12 C-8 16.62 -8 21.24 -8 26 C-6.453125 25.7525 -6.453125 25.7525 -4.875 25.5 C-1 25 -1 25 2.1875 25.1875 C5.05976173 25.21248095 5.05976173 25.21248095 7.375 23.5625 C9.70069294 19.89506113 9.86672198 16.23991022 9 12 C7.8226522 10.15595129 7.8226522 10.15595129 6 9 C3.94636394 8.6393369 3.94636394 8.6393369 1.8125 8.8125 C0.554375 8.874375 -0.70375 8.93625 -2 9 C-2.25 3.375 -2.25 3.375 0 0 Z " fill="#000001" transform="translate(131,96)"/>
<path d="M0 0 C1.65 0 3.3 0 5 0 C5 3.63 5 7.26 5 11 C6.32 11 7.64 11 9 11 C9.33 10.01 9.66 9.02 10 8 C11.98 8 13.96 8 16 8 C15.67 8.99 15.34 9.98 15 11 C16.32 11 17.64 11 19 11 C19 14.96 19 18.92 19 23 C18.34 23.33 17.68 23.66 17 24 C17.33 24.66 17.66 25.32 18 26 C14.75 26.375 14.75 26.375 11 26 C8.625 23 8.625 23 7 20 C6.67 20 6.34 20 6 20 C5.67 21.98 5.34 23.96 5 26 C3.35 26 1.7 26 0 26 C0 17.42 0 8.84 0 0 Z " fill="#3D4CDC" transform="translate(75,96)"/>
<path d="M0 0 C8 -0.26666667 8 -0.26666667 12 2 C14.97 2.495 14.97 2.495 18 3 C18 7.95 18 12.9 18 18 C19.98 18 21.96 18 24 18 C23.67 18.66 23.34 19.32 23 20 C20.69 20 18.38 20 16 20 C16 19.34 16 18.68 16 18 C14.02 18.99 14.02 18.99 12 20 C12 19.34 12 18.68 12 18 C11.16855469 18.03480469 10.33710937 18.06960937 9.48046875 18.10546875 C7.85044922 18.14607422 7.85044922 18.14607422 6.1875 18.1875 C5.10855469 18.22230469 4.02960937 18.25710937 2.91796875 18.29296875 C0 18 0 18 -1.8828125 16.67578125 C-3 15 -3 15 -3.0625 12 C-2 9 -2 9 0.875 7.125 C4 6 4 6 7 6 C7 5.34 7 4.68 7 4 C4.36 4.33 1.72 4.66 -1 5 C-0.67 3.35 -0.34 1.7 0 0 Z " fill="#3E4CDA" transform="translate(35,104)"/>
<path d="M0 0 C0.33 0 0.66 0 1 0 C1 8.58 1 17.16 1 26 C2.65 26 4.3 26 6 26 C6 24.02 6 22.04 6 20 C6.99 20 7.98 20 9 20 C9.433125 20.825 9.86625 21.65 10.3125 22.5 C10.869375 23.325 11.42625 24.15 12 25 C15.12635209 25.41746608 15.12635209 25.41746608 18 25 C17.505 24.01 17.505 24.01 17 23 C17.99 23 18.98 23 20 23 C20 16.07 20 9.14 20 2 C20.66 2 21.32 2 22 2 C22.86963087 4.99706695 23.11763099 7.64956526 23.09765625 10.765625 C23.09443359 11.65507813 23.09121094 12.54453125 23.08789062 13.4609375 C23.07532227 14.84152344 23.07532227 14.84152344 23.0625 16.25 C23.05798828 17.18585938 23.05347656 18.12171875 23.04882812 19.0859375 C23.03706918 21.39069041 23.02063426 23.69531227 23 26 C25.64 26 28.28 26 31 26 C28.42483378 28.63746863 26.45668604 29.21887499 22.890625 29.29296875 C21.34347769 29.27313353 19.79646604 29.2375101 18.25 29.1875 C17.45722656 29.17396484 16.66445312 29.16042969 15.84765625 29.14648438 C13.89814436 29.11125223 11.94898374 29.05744821 10 29 C9.67 28.34 9.34 27.68 9 27 C8.01 27.33 7.02 27.66 6 28 C4.29222439 28.04364922 2.58286886 28.03983368 0.875 28 C-0.74956329 27.96232897 -2.37566762 27.95342416 -4 28 C-4.33 28.33 -4.66 28.66 -5 29 C-8 29.125 -8 29.125 -11 29 C-12 28 -12 28 -12.09765625 25.27734375 C-12.08605469 24.17519531 -12.07445312 23.07304688 -12.0625 21.9375 C-12.05347656 20.83277344 -12.04445312 19.72804688 -12.03515625 18.58984375 C-12.02355469 17.73519531 -12.01195312 16.88054687 -12 16 C-12.99 16 -13.98 16 -15 16 C-15 15.01 -15 14.02 -15 13 C-13.35 13 -11.7 13 -10 13 C-10 17.29 -10 21.58 -10 26 C-8.02 26 -6.04 26 -4 26 C-4.33 21.05 -4.66 16.1 -5 11 C-3.68 11 -2.36 11 -1 11 C-1.01160156 10.28972656 -1.02320312 9.57945313 -1.03515625 8.84765625 C-1.04869141 7.46900391 -1.04869141 7.46900391 -1.0625 6.0625 C-1.07410156 5.14597656 -1.08570312 4.22945313 -1.09765625 3.28515625 C-1 1 -1 1 0 0 Z " fill="#364368" transform="translate(74,96)"/>
<path d="M0 0 C1.79288798 3.58577596 1.00943183 7.79551793 0.9375 11.73828125 C0.90964912 15.3165197 0.90964912 15.3165197 2 20 C-5.59 20 -13.18 20 -21 20 C-21 14 -21 14 -19.07226562 12.03369141 C-18.19248047 11.47858887 -17.31269531 10.92348633 -16.40625 10.3515625 C-15.45878906 9.73925781 -14.51132812 9.12695312 -13.53515625 8.49609375 C-12.53355469 7.87863281 -11.53195313 7.26117187 -10.5 6.625 C-9.49839844 5.98433594 -8.49679688 5.34367187 -7.46484375 4.68359375 C-4.98792521 3.10308382 -2.50020295 1.5433117 0 0 Z " fill="#93ABBA" transform="translate(54,22)"/>
<path d="M0 0 C1.32 0 2.64 0 4 0 C6.14751732 3.49744628 6.25748984 6.31206785 6.265625 10.375 C6.26820312 11.60734375 6.27078125 12.8396875 6.2734375 14.109375 C6.26570313 15.39328125 6.25796875 16.6771875 6.25 18 C6.25773437 19.28390625 6.26546875 20.5678125 6.2734375 21.890625 C6.27085938 23.12296875 6.26828125 24.3553125 6.265625 25.625 C6.26336914 26.75164062 6.26111328 27.87828125 6.25878906 29.0390625 C6.00791555 31.90943418 5.49176307 33.57051496 4 36 C2.68 36 1.36 36 0 36 C-2.14751732 32.50255372 -2.25748984 29.68793215 -2.265625 25.625 C-2.26820312 24.39265625 -2.27078125 23.1603125 -2.2734375 21.890625 C-2.26570313 20.60671875 -2.25796875 19.3228125 -2.25 18 C-2.25773437 16.71609375 -2.26546875 15.4321875 -2.2734375 14.109375 C-2.27085938 12.87703125 -2.26828125 11.6446875 -2.265625 10.375 C-2.26336914 9.24835938 -2.26111328 8.12171875 -2.25878906 6.9609375 C-2.00791555 4.09056582 -1.49176307 2.42948504 0 0 Z " fill="#576672" transform="translate(98,56)"/>
<path d="M0 0 C2.63944659 1.65090861 5.26845581 3.31561814 7.88671875 5 C9.89705511 6.29145824 11.91984945 7.56381789 13.95703125 8.8125 C15.30861328 9.67875 15.30861328 9.67875 16.6875 10.5625 C17.51636719 11.07941406 18.34523438 11.59632812 19.19921875 12.12890625 C21 14 21 14 21 20 C13.74 20 6.48 20 -1 20 C-0.67 18.68 -0.34 17.36 0 16 C0.06926968 13.24029592 0.0941736 10.50803958 0.0625 7.75 C0.05798828 7.00492188 0.05347656 6.25984375 0.04882812 5.4921875 C0.03709246 3.6614236 0.0191585 1.83070127 0 0 Z " fill="#93ABBA" transform="translate(96,22)"/>
<path d="M0 0 C1.9375 0.375 1.9375 0.375 4 1 C6.14694991 5.29389983 5.18585465 11.03328579 5.18530273 15.8034668 C5.18748798 17.92582281 5.2056452 20.04765795 5.22460938 22.16992188 C5.22754367 23.51822739 5.22952823 24.86653537 5.23046875 26.21484375 C5.23457764 27.44323975 5.23868652 28.67163574 5.24291992 29.93725586 C5 33 5 33 3 36 C1.68 36 0.36 36 -1 36 C-2.70042944 30.89871168 -2.18592415 25.46032393 -2.18530273 20.12109375 C-2.18749212 18.00760855 -2.20566952 15.8946431 -2.22460938 13.78125 C-2.22754302 12.43750178 -2.22952801 11.09375109 -2.23046875 9.75 C-2.23457764 8.52796875 -2.23868652 7.3059375 -2.24291992 6.046875 C-2 3 -2 3 0 0 Z " fill="#54636E" transform="translate(49,56)"/>
<path d="M0 0 C13.2 0 26.4 0 40 0 C39.67 1.32 39.34 2.64 39 4 C33.25 4.125 33.25 4.125 31 3 C28.28239892 2.92818179 25.59140612 2.90700494 22.875 2.9375 C21.74384766 2.94426758 21.74384766 2.94426758 20.58984375 2.95117188 C18.72652873 2.96296501 16.86325445 2.98090058 15 3 C14.67 6.3 14.34 9.6 14 13 C12.68 13 11.36 13 10 13 C10 12.34 10 11.68 10 11 C8.35 11 6.7 11 5 11 C4.67 11.66 4.34 12.32 4 13 C2.68 13 1.36 13 0 13 C0 8.71 0 4.42 0 0 Z " fill="#B8CAD9" transform="translate(80,94)"/>
<path d="M0 0 C0.99 0.33 1.98 0.66 3 1 C3 1.66 3 2.32 3 3 C10.92 2.505 10.92 2.505 19 2 C12.26816571 8.73183429 2.89147276 8.28018289 -6.125 8.3125 C-7.51972534 8.32059692 -7.51972534 8.32059692 -8.94262695 8.32885742 C-14.6973665 8.27016163 -20.54673787 8.01354866 -26 6 C-26.33 5.34 -26.66 4.68 -27 4 C-22.32627532 1.00402264 -19.40697684 0.83243572 -14.1484375 1.7734375 C-11.80589784 2.02046895 -10.25341413 1.6207009 -8 1 C-5.66666667 1 -3.33333333 1 -1 1 C-0.67 0.67 -0.34 0.34 0 0 Z " fill="#5E82E6" transform="translate(81,122)"/>
<path d="M0 0 C2.64 0 5.28 0 8 0 C8 8.25 8 16.5 8 25 C5.36 25 2.72 25 0 25 C0 16.75 0 8.5 0 0 Z " fill="#C9DBEA" transform="translate(55,62)"/>
<path d="M0 0 C2.64 0 5.28 0 8 0 C8 7.92 8 15.84 8 24 C5.36 24 2.72 24 0 24 C0 16.08 0 8.16 0 0 Z " fill="#CDDFEE" transform="translate(104,62)"/>
<path d="M0 0 C2.64 0 5.28 0 8 0 C8 7.92 8 15.84 8 24 C5.36 24 2.72 24 0 24 C0 16.08 0 8.16 0 0 Z " fill="#CDDFEE" transform="translate(88,62)"/>
<path d="M0 0 C2.64 0 5.28 0 8 0 C8 7.92 8 15.84 8 24 C5.36 24 2.72 24 0 24 C0 16.08 0 8.16 0 0 Z " fill="#CDDFEE" transform="translate(38,62)"/>
<path d="M0 0 C4.29 0 8.58 0 13 0 C12.67 1.65 12.34 3.3 12 5 C11.91919106 7.49499771 11.89239839 9.99199506 11.90234375 12.48828125 C11.90446617 13.5430793 11.90446617 13.5430793 11.90663147 14.6191864 C11.91219891 16.85033544 11.92474525 19.08138164 11.9375 21.3125 C11.94251921 22.83137875 11.94708138 24.35025909 11.95117188 25.86914062 C11.96215764 29.57946012 11.97939966 33.28972001 12 37 C8.37 37 4.74 37 1 37 C1.495 34.03 1.495 34.03 2 31 C4.64 31 7.28 31 10 31 C10 23.08 10 15.16 10 7 C7.36 7 4.72 7 2 7 C0.5393715 4.35261084 0 3.10551666 0 0 Z " fill="#A3BAD3" transform="translate(102,55)"/>
<path d="M0 0 C0.70253906 0.00386719 1.40507813 0.00773437 2.12890625 0.01171875 C2.83144531 0.00785156 3.53398438 0.00398438 4.2578125 0 C9.50229247 0.01010497 9.50229247 0.01010497 10.62890625 1.13671875 C10.66971408 3.13630239 10.67144981 5.13717129 10.62890625 7.13671875 C7.98890625 7.13671875 5.34890625 7.13671875 2.62890625 7.13671875 C2.62890625 13.07671875 2.62890625 19.01671875 2.62890625 25.13671875 C1.96890625 25.13671875 1.30890625 25.13671875 0.62890625 25.13671875 C0.62890625 19.19671875 0.62890625 13.25671875 0.62890625 7.13671875 C-1.68109375 7.13671875 -3.99109375 7.13671875 -6.37109375 7.13671875 C-6.41363731 5.13717129 -6.41190158 3.13630239 -6.37109375 1.13671875 C-4.61549433 -0.61888067 -2.33526933 0.00449956 0 0 Z " fill="#9BB7C4" transform="translate(73.37109375,66.86328125)"/>
<path d="M0 0 C7 1 7 1 8.9375 2.625 C10.4590889 6.02619871 10.51749792 8.31282731 10 12 C7.8125 14.9375 7.8125 14.9375 5 17 C3.35 17 1.7 17 0 17 C0 11.39 0 5.78 0 0 Z " fill="#4058A0" transform="translate(102,101)"/>
<path d="M0 0 C13.86 0 27.72 0 42 0 C42 0.99 42 1.98 42 3 C28.14 3 14.28 3 0 3 C0 2.01 0 1.02 0 0 Z " fill="#CCDEED" transform="translate(29,95)"/>
<path d="M0 0 C2.31 0 4.62 0 7 0 C7 5.94 7 11.88 7 18 C4.69 18 2.38 18 0 18 C0 12.06 0 6.12 0 0 Z " fill="#6AA2AC" transform="translate(77,74)"/>
<path d="M0 0 C2.31 0 4.62 0 7 0 C7 5.94 7 11.88 7 18 C4.69 18 2.38 18 0 18 C0 12.06 0 6.12 0 0 Z " fill="#6AA3AD" transform="translate(67,74)"/>
<path d="M0 0 C3.63 0 7.26 0 11 0 C11.33 0.99 11.66 1.98 12 3 C14.40541929 4.20270964 16.10366591 4.20316663 18.7890625 4.31640625 C19.73007812 4.35830078 20.67109375 4.40019531 21.640625 4.44335938 C22.62546875 4.48267578 23.6103125 4.52199219 24.625 4.5625 C25.61757813 4.60568359 26.61015625 4.64886719 27.6328125 4.69335938 C30.08839838 4.79961069 32.54408703 4.90164964 35 5 C35.495 5.99 35.495 5.99 36 7 C35.34 7.66 34.68 8.32 34 9 C34 8.01 34 7.02 34 6 C20.14 6 6.28 6 -8 6 C-8 5.01 -8 4.02 -8 3 C-5.69 3 -3.38 3 -1 3 C-0.67 2.01 -0.34 1.02 0 0 Z " fill="#A7BDCD" transform="translate(37,89)"/>
<path d="M0 0 C0.33 0.66 0.66 1.32 1 2 C5.29 2 9.58 2 14 2 C14 4.97 14 7.94 14 11 C12.68 11 11.36 11 10 11 C10 10.34 10 9.68 10 9 C8.35 9 6.7 9 5 9 C4.67 9.66 4.34 10.32 4 11 C2.68 11 1.36 11 0 11 C0 7.37 0 3.74 0 0 Z " fill="#8FA4B7" transform="translate(80,96)"/>
<path d="M0 0 C15.84 0 31.68 0 48 0 C48 2.97 48 5.94 48 9 C47.67 9 47.34 9 47 9 C47 6.69 47 4.38 47 2 C32.48 2 17.96 2 3 2 C3 4.31 3 6.62 3 9 C2.34 8.67 1.68 8.34 1 8 C1.020625 7.05125 1.04125 6.1025 1.0625 5.125 C1.22551826 2.09333717 1.22551826 2.09333717 0 0 Z " fill="#92A8B9" transform="translate(25,98)"/>
<path d="M0 0 C0.66 0 1.32 0 2 0 C2.86963087 2.99706695 3.11763099 5.64956526 3.09765625 8.765625 C3.09443359 9.65507813 3.09121094 10.54453125 3.08789062 11.4609375 C3.07951172 12.38132812 3.07113281 13.30171875 3.0625 14.25 C3.05798828 15.18585938 3.05347656 16.12171875 3.04882812 17.0859375 C3.03706918 19.39069041 3.02063426 21.69531227 3 24 C5.64 24 8.28 24 11 24 C8.42483378 26.63746863 6.45668604 27.21887499 2.890625 27.29296875 C1.34347769 27.27313353 -0.20353396 27.2375101 -1.75 27.1875 C-2.93916016 27.16719727 -2.93916016 27.16719727 -4.15234375 27.14648438 C-6.10185564 27.11125223 -8.05101626 27.05744821 -10 27 C-10 26.67 -10 26.34 -10 26 C-6.535 25.505 -6.535 25.505 -3 25 C-3 24.01 -3 23.02 -3 22 C-2.01 21.67 -1.02 21.34 0 21 C0 14.07 0 7.14 0 0 Z " fill="#43548E" transform="translate(94,98)"/>
<path d="M0 0 C3.3 0 6.6 0 10 0 C10 9.9 10 19.8 10 30 C6.7 30 3.4 30 0 30 C0 20.1 0 10.2 0 0 Z M1 3 C1 10.92 1 18.84 1 27 C3.64 27 6.28 27 9 27 C9 19.08 9 11.16 9 3 C6.36 3 3.72 3 1 3 Z " fill="#8DA4C2" transform="translate(37,59)"/>
<path d="M0 0 C0.33 3.63 0.66 7.26 1 11 C-4.94 11 -10.88 11 -17 11 C-13.63684641 8.30947713 -10.3188985 5.73259379 -6.8125 3.25 C-5.95269531 2.63640625 -5.09289062 2.0228125 -4.20703125 1.390625 C-2 0 -2 0 0 0 Z " fill="#657683" transform="translate(53,28)"/>
<path d="M0 0 C1.32 0 2.64 0 4 0 C4 5.28 4 10.56 4 16 C0.00975253 17.99512373 -1.69086333 18.28727578 -6 18 C-7 17 -7 17 -7.09765625 14.27734375 C-7.08605469 13.17519531 -7.07445312 12.07304688 -7.0625 10.9375 C-7.05347656 9.83277344 -7.04445312 8.72804688 -7.03515625 7.58984375 C-7.02355469 6.73519531 -7.01195312 5.88054687 -7 5 C-7.99 5 -8.98 5 -10 5 C-10 4.01 -10 3.02 -10 2 C-8.35 2 -6.7 2 -5 2 C-5 6.29 -5 10.58 -5 15 C-3.02 15 -1.04 15 1 15 C0.67 10.05 0.34 5.1 0 0 Z " fill="#32457B" transform="translate(69,107)"/>
<path d="M0 0 C4.31271634 1.72508654 7.13669235 3.35116129 10.8125 6.0625 C11.78832031 6.77535156 12.76414062 7.48820312 13.76953125 8.22265625 C14.87361328 9.10244141 14.87361328 9.10244141 16 10 C16 10.33 16 10.66 16 11 C10.39 11 4.78 11 -1 11 C-0.67 7.37 -0.34 3.74 0 0 Z " fill="#667683" transform="translate(98,28)"/>
<path d="M0 0 C13.86 0 27.72 0 42 0 C42 1.65 42 3.3 42 5 C41.5877417 4.5155542 41.1754834 4.0311084 40.75073242 3.53198242 C38.66668126 1.70832867 37.71459137 1.59077411 34.98828125 1.48828125 C34.23095703 1.45283203 33.47363281 1.41738281 32.69335938 1.38085938 C31.90767578 1.35830078 31.12199219 1.33574219 30.3125 1.3125 C29.51521484 1.27833984 28.71792969 1.24417969 27.89648438 1.20898438 C25.93148096 1.12661896 23.96576304 1.06162933 22 1 C21.67 2.32 21.34 3.64 21 5 C18.69 4.67 16.38 4.34 14 4 C14 3.34 14 2.68 14 2 C12.41632253 2.14204741 10.83306682 2.28880153 9.25 2.4375 C8.36828125 2.51871094 7.4865625 2.59992188 6.578125 2.68359375 C4.30649548 2.96238465 2.20148177 3.38790577 0 4 C0 2.68 0 1.36 0 0 Z " fill="#BDCEDD" transform="translate(29,101)"/>
<path d="M0 0 C1.98 0 3.96 0 6 0 C6 4.95 6 9.9 6 15 C7.98 15 9.96 15 12 15 C11.67 15.66 11.34 16.32 11 17 C8.69 17 6.38 17 4 17 C4 16.34 4 15.68 4 15 C2.02 15.99 2.02 15.99 0 17 C0 11.39 0 5.78 0 0 Z " fill="#3A4F8E" transform="translate(47,107)"/>
<path d="M0 0 C1.65 0 3.3 0 5 0 C5 3.96 5 7.92 5 12 C0.41154237 10.85288559 -0.54264494 9.91356547 -3 6 C-2.82560493 2.94808622 -2.18741485 2.18741485 0 0 Z " fill="#3E549C" transform="translate(89,107)"/>
<path d="M0 0 C3.3 0 6.6 0 10 0 C9.67 0.99 9.34 1.98 9 3 C6.36 3 3.72 3 1 3 C1 11.25 1 19.5 1 28 C3.64 28 6.28 28 9 28 C9.33 28.66 9.66 29.32 10 30 C6.7 30 3.4 30 0 30 C0 20.1 0 10.2 0 0 Z " fill="#96ABB9" transform="translate(54,59)"/>
<path d="M0 0 C9.9 0 19.8 0 30 0 C30.33 0.66 30.66 1.32 31 2 C22.75 2 14.5 2 6 2 C6 4.31 6 6.62 6 9 C5.67 9 5.34 9 5 9 C5 6.69 5 4.38 5 2 C3.35 2 1.7 2 0 2 C0 1.34 0 0.68 0 0 Z " fill="#94ADC0" transform="translate(29,45)"/>
<path d="M0 0 C0.99 0.33 1.98 0.66 3 1 C3 1.66 3 2.32 3 3 C10.92 2.505 10.92 2.505 19 2 C16 5 16 5 12.63012695 5.2487793 C11.24893499 5.20643677 9.86819353 5.14719985 8.48828125 5.07421875 C7.76005661 5.04777786 7.03183197 5.02133698 6.28153992 4.99409485 C3.95768728 4.90638495 1.63540721 4.79722285 -0.6875 4.6875 C-2.26361569 4.62423532 -3.83978819 4.56236945 -5.41601562 4.50195312 C-9.27819019 4.35085376 -13.1390928 4.18051077 -17 4 C-17 3.67 -17 3.34 -17 3 C-11.52012537 1.60828581 -6.64632407 0.88236825 -1 1 C-0.67 0.67 -0.34 0.34 0 0 Z " fill="#4C69BA" transform="translate(81,122)"/>
<path d="M0 0 C0.33 0 0.66 0 1 0 C1 2.31 1 4.62 1 7 C0.484375 6.855625 -0.03125 6.71125 -0.5625 6.5625 C-6.80714266 5.05462993 -6.80714266 5.05462993 -13 6 C-13 5.34 -13 4.68 -13 4 C-14.65 4 -16.3 4 -18 4 C-18 4.99 -18 5.98 -18 7 C-19.98 7 -21.96 7 -24 7 C-23.01 6.67 -22.02 6.34 -21 6 C-20.26676204 3.98491642 -20.26676204 3.98491642 -20 2 C-17.20775927 1.91928212 -14.41783434 1.85964592 -11.625 1.8125 C-10.8309375 1.78736328 -10.036875 1.76222656 -9.21875 1.73632812 C-7.14413852 1.70995595 -5.06899135 1.84513538 -3 2 C-2.01 3.485 -2.01 3.485 -1 5 C-0.67 3.35 -0.34 1.7 0 0 Z " fill="#B2C2D2" transform="translate(71,100)"/>
<path d="M0 0 C0.99 0 1.98 0 3 0 C3 3.63 3 7.26 3 11 C-4.13846154 15.18461538 -4.13846154 15.18461538 -8.5 14.25 C-9.325 13.8375 -10.15 13.425 -11 13 C-10.67 12.01 -10.34 11.02 -10 10 C-9.34 10 -8.68 10 -8 10 C-8 10.66 -8 11.32 -8 12 C-4.535 11.505 -4.535 11.505 -1 11 C-0.67 7.37 -0.34 3.74 0 0 Z " fill="#435DA5" transform="translate(59,112)"/>
<path d="M0 0 C2.64 0 5.28 0 8 0 C8.33 1.98 8.66 3.96 9 6 C5.37 6 1.74 6 -2 6 C-1 2 -1 2 0 0 Z " fill="#C9DBEA" transform="translate(88,86)"/>
<path d="M0 0 C3.3 0 6.6 0 10 0 C9.67 0.99 9.34 1.98 9 3 C6.36 3 3.72 3 1 3 C1 11.58 1 20.16 1 29 C0.67 29 0.34 29 0 29 C0 19.43 0 9.86 0 0 Z " fill="#8595A2" transform="translate(87,59)"/>
<path d="M0 0 C4.29 0 8.58 0 13 0 C12.67 1.32 12.34 2.64 12 4 C8.37 4 4.74 4 1 4 C0.67 2.68 0.34 1.36 0 0 Z " fill="#C3D6E6" transform="translate(102,55)"/>
<path d="M0 0 C0.33 0 0.66 0 1 0 C1 5.94 1 11.88 1 18 C3.64 18 6.28 18 9 18 C7 20 7 20 4.8984375 20.23046875 C-0.47942306 20.13889527 -5.67772123 19.78848574 -11 19 C-11 18.67 -11 18.34 -11 18 C-7.37 18 -3.74 18 0 18 C0 12.06 0 6.12 0 0 Z " fill="#86AAB6" transform="translate(76,74)"/>
<path d="M0 0 C0.66 0 1.32 0 2 0 C2 4.95 2 9.9 2 15 C3.98 15 5.96 15 8 15 C7.67 15.66 7.34 16.32 7 17 C4.69 17 2.38 17 0 17 C0 11.39 0 5.78 0 0 Z " fill="#25335B" transform="translate(51,107)"/>
<path d="M0 0 C2.475 0.495 2.475 0.495 5 1 C5 3.97 5 6.94 5 10 C3.68 10.33 2.36 10.66 1 11 C0.67 7.37 0.34 3.74 0 0 Z " fill="#6F8BD4" transform="translate(103,104)"/>
<path d="M0 0 C1.67542976 0.28604898 3.34385343 0.61781233 5 1 C5 2.98 5 4.96 5 7 C3.34385343 7.38218767 1.67542976 7.71395102 0 8 C-1 7 -1 7 -1.125 4 C-1 1 -1 1 0 0 Z " fill="#000000" transform="translate(130,109)"/>
<path d="M0 0 C8.58 0 17.16 0 26 0 C26 1.65 26 3.3 26 5 C25.59676514 4.51104248 25.19353027 4.02208496 24.77807617 3.51831055 C22.53597554 1.60376656 21.46150215 1.64842613 18.55078125 1.70703125 C17.70322266 1.71669922 16.85566406 1.72636719 15.98242188 1.73632812 C15.10134766 1.76146484 14.22027344 1.78660156 13.3125 1.8125 C12.41982422 1.82603516 11.52714844 1.83957031 10.60742188 1.85351562 C8.40433834 1.88885921 6.20247418 1.93819507 4 2 C4 2.66 4 3.32 4 4 C3.34 4 2.68 4 2 4 C2 3.34 2 2.68 2 2 C1.34 2 0.68 2 0 2 C0 1.34 0 0.68 0 0 Z " fill="#C8D9E8" transform="translate(45,101)"/>
<path d="M0 0 C0.33 0 0.66 0 1 0 C1.76681614 9.57668161 1.76681614 9.57668161 -0.11328125 13.06640625 C-1.5 14.6875 -1.5 14.6875 -4 17 C-5.04449911 13.86650268 -4.93423645 13.01031744 -4 10 C-3.01 10 -2.02 10 -1 10 C-1.01160156 9.36191406 -1.02320312 8.72382812 -1.03515625 8.06640625 C-1.04869141 6.82697266 -1.04869141 6.82697266 -1.0625 5.5625 C-1.07410156 4.73878906 -1.08570312 3.91507812 -1.09765625 3.06640625 C-1 1 -1 1 0 0 Z " fill="#4C5765" transform="translate(122,97)"/>
<path d="M0 0 C0.99 0 1.98 0 3 0 C3 0.66 3 1.32 3 2 C3.66 1.67 4.32 1.34 5 1 C6.99960012 0.960008 9.00047242 0.95653201 11 1 C11 1.66 11 2.32 11 3 C10.16855469 3.29003906 10.16855469 3.29003906 9.3203125 3.5859375 C8.59585938 3.84632812 7.87140625 4.10671875 7.125 4.375 C6.40570313 4.63023438 5.68640625 4.88546875 4.9453125 5.1484375 C2.81842006 5.93877783 2.81842006 5.93877783 1 8 C0.17361624 5.10765685 0 3.11257569 0 0 Z " fill="#2E4076" transform="translate(31,107)"/>
<path d="M0 0 C3.63 0 7.26 0 11 0 C11 1.98 11 3.96 11 6 C10.67 5.34 10.34 4.68 10 4 C7.64400765 3.53248212 7.64400765 3.53248212 4.9375 3.375 C4.01839844 3.30023438 3.09929687 3.22546875 2.15234375 3.1484375 C1.44207031 3.09945312 0.73179688 3.05046875 0 3 C0 2.01 0 1.02 0 0 Z " fill="#B7C8D6" transform="translate(82,100)"/>
<path d="M0 0 C3.96 0 7.92 0 12 0 C12 0.99 12 1.98 12 3 C8.04 3 4.08 3 0 3 C0 2.01 0 1.02 0 0 Z " fill="#C8DBEB" transform="translate(36,56)"/>
<path d="M0 0 C3.63 0 7.26 0 11 0 C11 0.99 11 1.98 11 3 C7.04 3 3.08 3 -1 3 C-0.67 2.01 -0.34 1.02 0 0 Z " fill="#CADCEB" transform="translate(37,89)"/>
<path d="M0 0 C3.96 0 7.92 0 12 0 C11.67 0.99 11.34 1.98 11 3 C7.37 3 3.74 3 0 3 C0 2.01 0 1.02 0 0 Z " fill="#CADCEB" transform="translate(86,56)"/>
<path d="M0 0 C3.96 0 7.92 0 12 0 C11.67 0.99 11.34 1.98 11 3 C7.37 3 3.74 3 0 3 C0 2.01 0 1.02 0 0 Z " fill="#CBDDEC" transform="translate(53,56)"/>
<path d="M0 0 C2.475 0.495 2.475 0.495 5 1 C5.33 2.32 5.66 3.64 6 5 C3 7 3 7 0 7 C0 4.69 0 2.38 0 0 Z " fill="#000000" transform="translate(16,111)"/>
<path d="M0 0 C3.3125 0.1875 3.3125 0.1875 7 1 C8.9375 3.5625 8.9375 3.5625 10 6 C8.68 6 7.36 6 6 6 C5.67 5.34 5.34 4.68 5 4 C2.97536745 3.34786708 2.97536745 3.34786708 1 3 C0.67 3.99 0.34 4.98 0 6 C0 4.02 0 2.04 0 0 Z " fill="#5E687B" transform="translate(102,101)"/>
<path d="M0 0 C2 4 2 4 2 7 C4.64 7 7.28 7 10 7 C10 7.33 10 7.66 10 8 C9.195625 8.12375 8.39125 8.2475 7.5625 8.375 C6.716875 8.58125 5.87125 8.7875 5 9 C4.67 9.66 4.34 10.32 4 11 C2.68 11 1.36 11 0 11 C0 7.37 0 3.74 0 0 Z " fill="#7D8AAC" transform="translate(80,96)"/>
<path d="M0 0 C3.63 0 7.26 0 11 0 C11 0.99 11 1.98 11 3 C7.37 3 3.74 3 0 3 C0 2.01 0 1.02 0 0 Z " fill="#CBDDEC" transform="translate(83,95)"/>
<path d="M0 0 C3.63 0 7.26 0 11 0 C11 0.99 11 1.98 11 3 C7.37 3 3.74 3 0 3 C0 2.01 0 1.02 0 0 Z " fill="#C8DBEB" transform="translate(103,89)"/>
<path d="M0 0 C3.63 0 7.26 0 11 0 C11 0.99 11 1.98 11 3 C7.37 3 3.74 3 0 3 C0 2.01 0 1.02 0 0 Z " fill="#CBDDEC" transform="translate(53,89)"/>
<path d="M0 0 C0.33 0 0.66 0 1 0 C1 4.95 1 9.9 1 15 C3.97 15 6.94 15 10 15 C8.375 16.625 8.375 16.625 6 18 C4.02 17.34 2.04 16.68 0 16 C0 10.72 0 5.44 0 0 Z " fill="#233055" transform="translate(95,107)"/>
<path d="M0 0 C3.875 3.75 3.875 3.75 5 6 C8.02934491 6.65772428 8.02934491 6.65772428 11 7 C10.67 7.66 10.34 8.32 10 9 C7.69 9 5.38 9 3 9 C2.67 8.01 2.34 7.02 2 6 C1.34 5.67 0.68 5.34 0 5 C0 3.35 0 1.7 0 0 Z " fill="#23305A" transform="translate(81,115)"/>
<path d="M0 0 C4.62 0 9.24 0 14 0 C10 2 10 2 7 3 C7 2.34 7 1.68 7 1 C5.35 1 3.7 1 2 1 C2 1.99 2 2.98 2 4 C0.02 4 -1.96 4 -4 4 C-3.01 3.67 -2.02 3.34 -1 3 C-0.67 2.01 -0.34 1.02 0 0 Z " fill="#93A1AF" transform="translate(51,103)"/>
<path d="M0 0 C2.475 0.495 2.475 0.495 5 1 C5 2.32 5 3.64 5 5 C3.35 5.33 1.7 5.66 0 6 C0 4.02 0 2.04 0 0 Z " fill="#000004" transform="translate(16,101)"/>
<path d="M0 0 C2.64 0 5.28 0 8 0 C8.33 0.99 8.66 1.98 9 3 C5.7 3 2.4 3 -1 3 C-0.67 2.01 -0.34 1.02 0 0 Z " fill="#A1B8C8" transform="translate(38,86)"/>
<path d="M0 0 C3.3 0 6.6 0 10 0 C9.67 0.99 9.34 1.98 9 3 C6.36 3 3.72 3 1 3 C0.67 2.01 0.34 1.02 0 0 Z " fill="#9DB5C3" transform="translate(87,59)"/>
<path d="M0 0 C0.99 0 1.98 0 3 0 C3.36923077 5.41538462 3.36923077 5.41538462 1.5 8.375 C1.005 8.91125 0.51 9.4475 0 10 C-0.66 9.67 -1.32 9.34 -2 9 C-1.67 8.67 -1.34 8.34 -1 8 C-0.76924918 6.65252916 -0.58846937 5.29622435 -0.4375 3.9375 C-0.293125 2.638125 -0.14875 1.33875 0 0 Z " fill="#29386C" transform="translate(109,107)"/>
<path d="M0 0 C2.64 0 5.28 0 8 0 C8.33 0.99 8.66 1.98 9 3 C5.7 3 2.4 3 -1 3 C-0.67 2.01 -0.34 1.02 0 0 Z " fill="#A4BBCA" transform="translate(88,86)"/>
<path d="M0 0 C0.66 0 1.32 0 2 0 C2 2.31 2 4.62 2 7 C0.68 6.67 -0.64 6.34 -2 6 C-1.125 1.125 -1.125 1.125 0 0 Z " fill="#5677D4" transform="translate(91,109)"/>
<path d="M0 0 C3.3 0 6.6 0 10 0 C9.67 0.99 9.34 1.98 9 3 C6.1875 3.1875 6.1875 3.1875 3 3 C2.01 2.01 1.02 1.02 0 0 Z " fill="#C9DAE9" transform="translate(110,95)"/>
<path d="M0 0 C0.33 0 0.66 0 1 0 C1 3.96 1 7.92 1 12 C-0.32 11.67 -1.64 11.34 -3 11 C-3 10.01 -3 9.02 -3 8 C-2.01 8.33 -1.02 8.66 0 9 C0 6.03 0 3.06 0 0 Z " fill="#4661AD" transform="translate(93,107)"/>
<path d="M0 0 C1.32 0 2.64 0 4 0 C4 1.98 4 3.96 4 6 C3.01 5.67 2.02 5.34 1 5 C0.67 3.35 0.34 1.7 0 0 Z " fill="#AABACA" transform="translate(116,100)"/>
<path d="M0 0 C1.32 0.66 2.64 1.32 4 2 C4 2.33 4 2.66 4 3 C0.7 3.33 -2.6 3.66 -6 4 C-4 2.66666667 -2 1.33333333 0 0 Z " fill="#5778D5" transform="translate(60,123)"/>
<path d="M0 0 C1.32 0 2.64 0 4 0 C3.67 1.32 3.34 2.64 3 4 C1.68 4 0.36 4 -1 4 C-0.67 2.68 -0.34 1.36 0 0 Z " fill="#1E2955" transform="translate(39,114)"/>
<path d="M0 0 C0.99 0 1.98 0 3 0 C2.6875 2.375 2.6875 2.375 2 5 C1.01 5.66 0.02 6.32 -1 7 C-0.67 4.69 -0.34 2.38 0 0 Z " fill="#384D90" transform="translate(118,107)"/>
<path d="M0 0 C1.98 0 3.96 0 6 0 C6 0.66 6 1.32 6 2 C3.69 2.33 1.38 2.66 -1 3 C-0.67 2.01 -0.34 1.02 0 0 Z " fill="#1C2648" transform="translate(36,108)"/>
<path d="M0 0 C3.3 0 6.6 0 10 0 C10 0.33 10 0.66 10 1 C6.92382812 1.29296875 6.92382812 1.29296875 3.84765625 1.5859375 C3.23792969 1.72257812 2.62820312 1.85921875 2 2 C1.67 2.66 1.34 3.32 1 4 C0.34 4 -0.32 4 -1 4 C-0.67 2.68 -0.34 1.36 0 0 Z " fill="#929FB3" transform="translate(33,103)"/>
</svg>
